PathFileType	4	(X/Y/Z)	/Users/niels/Desktop/University/Third Semester/Perception and Action/Exam/Gymnastics Motion Tracking/Code for Gym Tracking/Analyzed Data/Webcam_Backflip/id3_4_baseline_Sports2D/id3_4_baseline_Sports2D_px_person00.trc
DataRate	CameraRate	NumFrames	NumMarkers	Units	OrigDataRate	OrigDataStartFrame	OrigNumFrames
29.8125	29.8125	7	22	m	29.8125	20	160
Frame#	Time	Hip			RHip			RKnee			RAnkle			RBigToe			RSmallToe			RHeel			LHip			LKnee			LAnkle			LBigToe			LSmallToe			LHeel			Neck			Head			Nose			RShoulder			RElbow			RWrist			LShoulder			LElbow			LWrist		
		X1	Y1	Z1	X2	Y2	Z2	X3	Y3	Z3	X4	Y4	Z4	X5	Y5	Z5	X6	Y6	Z6	X7	Y7	Z7	X8	Y8	Z8	X9	Y9	Z9	X10	Y10	Z10	X11	Y11	Z11	X12	Y12	Z12	X13	Y13	Z13	X14	Y14	Z14	X15	Y15	Z15	X16	Y16	Z16	X17	Y17	Z17	X18	Y18	Z18	X19	Y19	Z19	X20	Y20	Z20	X21	Y21	Z21	X22	Y22	Z22
20	0.670859538784067	0.9580878387695105	-0.5747830456326246	0.0	0.958195213372196	-0.5718857673847869	0.0	0.9882914510716249	-0.6811373371657315	0.0	0.9663255845760671	-0.7970608267725564	0.0	1.004802337169279	-0.8134776975549062	0.0	0.9956361694962427	-0.8173324058000514	0.0	0.954986745703364	-0.8123887735403308	0.0	0.9651801141546521	-0.5718061865978233	0.0	0.9905576881825188	-0.6793721023149067	0.0	0.96793713933338	-0.790322956339203	0.0	1.0078899538590371	-0.8076437101187698	0.0	1.001481247476369	-0.8067727899124075	0.0	0.9557579832772136	-0.8057789216989335	0.0	1.004288046913186	-0.4209812258089099	0.0	1.0508134636197766	-0.3603307916580756	0.0	1.0469887949975134	-0.4042376361961684	0.0	0.9889916393774896	-0.4392048483407827	0.0	1.0074149811666355	-0.5198732554325947	0.0	1.0545316638323363	-0.5820578418586997	0.0	0.9943481349306299	-0.440364687759304	0.0	1.0185401390984423	-0.5164642029141566	0.0	1.059357614188951	-0.5737133526264893	0.0
21	0.7044025157232703	0.9582303685469902	-0.5777226626419092	0.0	0.958696658148378	-0.5746505915903716	0.0	0.9864782535803353	-0.6840710939922388	0.0	0.965984127918009	-0.7999988126177278	0.0	1.004637233294773	-0.8162758415782335	0.0	0.99535574310396	-0.8201693216576299	0.0	0.954663046937266	-0.8156976971215206	0.0	0.965065342476414	-0.5748222114047105	0.0	0.988687355655713	-0.682368343985865	0.0	0.9674481451210126	-0.7943287816131022	0.0	1.006624801216575	-0.8109317242928603	0.0	1.0002595346840712	-0.8104801771401053	0.0	0.9555103011276891	-0.8100250012718563	0.0	1.0067763826681628	-0.4238303497850555	0.0	1.0541770186740398	-0.3641996829083843	0.0	1.0502595257410468	-0.40733742546400065	0.0	0.9908424399865375	-0.44114823514590834	0.0	0.9972982715491264	-0.5226852622622427	0.0	1.0340646168326788	-0.5903599432484523	0.0	0.9975845987267552	-0.4434314558570655	0.0	1.0113473018632686	-0.5205750475839097	0.0	1.0439626345068354	-0.5819950095054178	0.0
22	0.7379454926624737	0.958858687241678	-0.5802759814882368	0.0	0.9594146653066421	-0.5770704986500039	0.0	0.9844626072523042	-0.686583137069944	0.0	0.965588130180239	-0.8022939366220995	0.0	1.0042264470033924	-0.8182428709057643	0.0	0.9947469384904626	-0.8220764320725379	0.0	0.954319227557489	-0.8182500964323113	0.0	0.9651914825768293	-0.5775189407001028	0.0	0.9866066229654014	-0.6850045963448366	0.0	0.9670598636748933	-0.7972478003807649	0.0	1.0055235784555765	-0.8131581990009683	0.0	0.99947232580881	-0.8128703518647893	0.0	0.9554296643853609	-0.8130668224092608	0.0	1.0095081241184918	-0.42619082929133195	0.0	1.0579724981194651	-0.3683288610690377	0.0	1.0536146351357365	-0.410451831202397	0.0	0.9931975193596557	-0.44246786553241035	0.0	0.9875269177301419	-0.5223405554445835	0.0	1.0122409979424476	-0.5931323732613745	0.0	1.000280415692794	-0.44552354207721045	0.0	1.0026889390219873	-0.5218469541686312	0.0	1.0260723283639235	-0.5855051349023693	0.0
23	0.771488469601677	0.9598376160498284	-0.5819598422035679	0.0	0.9601222880159878	-0.5785996501462924	0.0	0.9822628938640128	-0.6882238592732821	0.0	0.9652329435899768	-0.8036327306556634	0.0	1.0036049984288744	-0.8191665413703206	0.0	0.9939136130635603	-0.822877519295398	0.0	0.9540621288209977	-0.8197271810839655	0.0	0.9655203414052158	-0.5793471355938214	0.0	0.9843863736771106	-0.686826594368331	0.0	0.9666981523488107	-0.7988343538895865	0.0	1.0045836131668362	-0.8141186332242404	0.0	0.9989561079772558	-0.8138155033651258	0.0	0.9553497242350132	-0.8146517179473367	0.0	1.0125095771665082	-0.4279516215191437	0.0	1.0623674626398827	-0.3722713181893122	0.0	1.05709586018591	-0.4133078645699023	0.0	0.9959769609153204	-0.44291758362942985	0.0	0.9786112700457188	-0.5187496328248222	0.0	0.9902280963495609	-0.590026762234732	0.0	1.0027419668570636	-0.4463775220163992	0.0	0.9929943108604634	-0.5199832659106661	0.0	1.0058450151186	-0.5838348484667003	0.0
24	0.8050314465408803	0.9608413391068884	-0.5822542124715956	0.0	0.9604978734956727	-0.5787058336067978	0.0	0.9799432764720848	-0.6887048101702947	0.0	0.9649836346908323	-0.8038373315675666	0.0	1.002864146535904	-0.8189919879258948	0.0	0.9930368891596921	-0.8225932053538053	0.0	0.9539960298941893	-0.8199795585367304	0.0	0.9658232571243817	-0.5797844408887419	0.0	0.9820893158822009	-0.6875157114355052	0.0	0.9662851544351501	-0.7990707101534621	0.0	1.0037497555427697	-0.8138523995449034	0.0	0.9984135769023806	-0.8134841051362878	0.0	0.9550549302403084	-0.814813409408272	0.0	1.0157925384063515	-0.4290287410011578	0.0	1.0674356541301218	-0.37560154954840974	0.0	1.0607710233439374	-0.41569454618555357	0.0	0.9990460440627726	-0.44234033871581835	0.0	0.9709662237297172	-0.5121475255675273	0.0	0.9692438468109287	-0.5812588448675918	0.0	1.005406945267216	-0.44597746986541853	0.0	0.9831423404001781	-0.5150226441750161	0.0	0.984281824041725	-0.5769314629473692	0.0
25	0.8385744234800837	0.9614316944501032	-0.5808076787863106	0.0	0.9601967847250461	-0.577080607638523	0.0	0.9776149519112088	-0.6879323700061836	0.0	0.9648229697615731	-0.8028359133898262	0.0	1.002083605266522	-0.8177570685842904	0.0	0.9922808955612121	-0.8213637488637228	0.0	0.9541354250052216	-0.8189817458958848	0.0	0.9656778077527747	-0.5785176541136979	0.0	0.9797472226923162	-0.6869447911128304	0.0	0.9657443014486109	-0.7979890061628282	0.0	1.0029935673834756	-0.8124294891390295	0.0	0.9976234667627687	-0.812096274718887	0.0	0.9543937541482943	-0.8136876153689863	0.0	1.0193070332058465	-0.4294369990821875	0.0	1.073128870915067	-0.3781362849289328	0.0	1.064628408769637	-0.4175489249029721	0.0	1.002341469882714	-0.4407838448733282	0.0	0.9648316344868227	-0.5030835166684718	0.0	0.9503400295480133	-0.5676274664925397	0.0	1.0085101678366994	-0.44455164613800113	0.0	0.974223942755843	-0.5074518575158634	0.0	0.9632908763343598	-0.5652343152454856	0.0
26	0.8721174004192871	0.96127792136531	-0.5776038859081	0.0	0.9590667707067037	-0.5737577385461808	0.0	0.9754268301483195	-0.6859400291017371	0.0	0.9647067612008184	-0.800621398044157	0.0	1.0014006064303764	-0.8154795634304212	0.0	0.9917632442160275	-0.8192785744932348	0.0	0.9544175099314142	-0.8167547030207297	0.0	0.9647318301128132	-0.5755412294307727	0.0	0.977381783151843	-0.6851018191952666	0.0	0.9650480720903025	-0.7955659331151025	0.0	1.0024398916027415	-0.8097933423329947	0.0	0.9966356687206165	-0.8096555155664635	0.0	0.9533955891572049	-0.8113349826280445	0.0	1.0229235804447585	-0.4292870182992312	0.0	1.0792609717594186	-0.379920471613885	0.0	1.0685664995676751	-0.4188901631621121	0.0	1.0059016037442683	-0.4384786897362275	0.0	0.9602456541276717	-0.49232139597679375	0.0	0.9342297490604945	-0.5503539912182154	0.0	1.0119795009139816	-0.4424089772422716	0.0	0.9671673215278908	-0.49804027170621007	0.0	0.944956543991396	-0.549672183174534	0.0
